<?xml version="1.0" encoding="UTF-8"?>
<svg width="1440" height="320" viewBox="0 0 1440 320" xmlns="http://www.w3.org/2000/svg">
  <path fill="#bbf7d0" d="M0,160L60,154.7C120,149,240,139,360,133.3C480,128,600,128,720,144C840,160,960,192,1080,202.7C1200,213,1320,203,1380,197.3L1440,192L1440,320L1380,320C1320,320,1200,320,1080,320C960,320,840,320,720,320C600,320,480,320,360,320C240,320,120,320,60,320L0,320Z"/>
  <path fill="#fef9c3" d="M0,224L60,202.7C120,181,240,139,360,112C480,85,600,75,720,80C840,85,960,107,1080,128C1200,149,1320,171,1380,181.3L1440,192L1440,320L1380,320C1320,320,1200,320,1080,320C960,320,840,320,720,320C600,320,480,320,360,320C240,320,120,320,60,320L0,320Z"/>
</svg>